<svg xmlns="http://www.w3.org/2000/svg" viewBox="0 0 720 420" role="img" aria-hidden="true">
  <defs>
    <radialGradient id="g" cx="50%" cy="42%" r="62%"><stop offset="0" stop-color="#0D4B86" stop-opacity=".65"/><stop offset=".65" stop-color="#03142D" stop-opacity=".15"/><stop offset="1" stop-color="#03142D" stop-opacity="0"/></radialGradient>
    <filter id="glow"><feGaussianBlur stdDeviation="5" result="b"/><feMerge><feMergeNode in="b"/><feMergeNode in="SourceGraphic"/></feMerge></filter>
  </defs>
  <rect width="720" height="420" rx="28" fill="#03142D"/>
  <rect width="720" height="420" rx="28" fill="url(#g)"/>
  <g stroke="#168CFF" stroke-width="3" fill="none" opacity=".28"><circle cx="80" cy="80" r="3"/><circle cx="160" cy="125" r="3"/><circle cx="240" cy="170" r="3"/><circle cx="320" cy="80" r="3"/><circle cx="400" cy="125" r="3"/><circle cx="480" cy="170" r="3"/><circle cx="560" cy="80" r="3"/><circle cx="640" cy="125" r="3"/><path d="M80 80l80 45 80-45 80 90 80-45 80 45 80-90"/></g>
  <g stroke="#57B8FF" stroke-width="8" stroke-linecap="round" stroke-linejoin="round" fill="none" filter="url(#glow)"><rect x="205" y="104" width="310" height="212" rx="24"/><path d="M250 154h160M250 197h220M250 240h150M250 283h190"/><path d="M452 139l52 52-83 83-58 12 12-58 77-89Z"/></g>
</svg>